<?xml version="1.0" encoding="UTF-8" standalone="no"?>
<!DOCTYPE svg PUBLIC "-//W3C//DTD SVG 1.1//EN" "http://www.w3.org/Graphics/SVG/1.1/DTD/svg11.dtd">
<svg width="400" height="396" viewBox="0 0 768 759" version="1.1" xmlns="http://www.w3.org/2000/svg" xmlns:xlink="http://www.w3.org/1999/xlink" xml:space="preserve" xmlns:serif="http://www.serif.com/" style="fill-rule:evenodd;clip-rule:evenodd;stroke-linecap:round;stroke-linejoin:round;">
    <g id="Image">
    </g>
    <g transform="matrix(1.8642,0,0,1.8642,425.368,-1080.25)">
        <g id="Pen">
            <g>
                <path id="STROKE_af098173-1ddf-4f9c-ad9c-8c98e9c55451" d="M42.806,710.842L-20.286,666.82L-20.23,598.461L42.806,710.842" style="fill:rgb(253,245,180);fill-rule:nonzero;stroke:black;stroke-width:2.45px;"/>
                <path id="STROKE_33727d9d-2b32-4927-ada9-cab504e3ef7d" d="M42.53,710.407L3.28,771.688L-20.155,666.946L42.53,710.407Z" style="fill:rgb(253,246,184);fill-rule:nonzero;stroke:black;stroke-width:2.45px;"/>
                <path id="STROKE_c34a1d0c-7792-4dbd-8f18-5148533cee6f" d="M-42.049,771.15L-20.55,667.433L-80.971,713.94L-42.049,771.15Z" style="fill:rgb(252,244,178);fill-rule:nonzero;stroke:black;stroke-width:2.45px;"/>
                <path id="STROKE_c34a1d0c-7792-4dbd-8f18-5148533cee6f1" serif:id="STROKE_c34a1d0c-7792-4dbd-8f18-5148533cee6f" d="M-80.296,713.043L-21.058,599.013L-20.19,666.292L-80.296,713.043Z" style="fill:rgb(253,242,157);fill-rule:nonzero;stroke:black;stroke-width:2.45px;"/>
                <path id="STROKE_500f616c-2b40-4511-830c-89d2b21b5609" d="M43.413,710.628L166.511,738.384L102.489,762.533L43.413,710.628Z" style="fill:rgb(245,245,163);fill-rule:nonzero;stroke:black;stroke-width:2.45px;"/>
                <path id="STROKE_7355c74e-b2d0-4435-965f-db77ae53da3e" d="M3.438,772.083L103.002,762.691L42.426,710.692L3.438,772.083Z" style="fill:rgb(252,246,184);fill-rule:nonzero;stroke:black;stroke-width:2.45px;"/>
                <path id="STROKE_049cb958-bc31-4456-a8bc-332078fd93fc" d="M166.731,738.494L91.289,832.392L102.686,762.874L166.731,738.494Z" style="fill:rgb(228,236,128);fill-rule:nonzero;stroke:black;stroke-width:2.45px;"/>
                <path id="STROKE_096be632-a53b-4748-98be-48ceb80ee2ab" d="M91.112,831.94L17.56,813.12L102.579,763.002L91.112,831.94Z" style="fill:rgb(240,242,150);fill-rule:nonzero;stroke:black;stroke-width:2.45px;"/>
                <path id="STROKE_a0078cc7-3c30-4bf0-b91a-782c94ae9171" d="M91.37,832.339L105.01,964.428L61.002,904.718L91.37,832.339Z" style="fill:rgb(184,224,125);fill-rule:nonzero;stroke:black;stroke-width:2.45px;"/>
                <path id="STROKE_c3ef9209-ec46-4e7c-9ab1-427c58c5f1b0" d="M90.996,832.23L60.873,904.414L17.164,813.964L90.996,832.23Z" style="fill:rgb(234,241,148);fill-rule:nonzero;stroke:black;stroke-width:2.45px;"/>
                <path id="STROKE_43d27aae-f5fa-455b-91c8-1d23a1e1e672" d="M60.242,905.483L-19.196,908.237L104.952,964.52L60.242,905.483Z" style="fill:rgb(185,224,127);fill-rule:nonzero;stroke:black;stroke-width:2.45px;"/>
                <path id="STROKE_ec14c494-497d-45cd-a569-80b966e6ec55" d="M-19.395,908.159L-20.394,840.008L60.042,904.981L-19.395,908.159Z" style="fill:rgb(199,229,121);fill-rule:nonzero;stroke:black;stroke-width:2.45px;"/>
                <path id="STROKE_48d776c8-7323-40d6-8a2e-f705861ff4a6" d="M-19.312,907.909L-101.224,904.66L-20.915,840.476L-19.312,907.909Z" style="fill:rgb(230,242,152);fill-rule:nonzero;stroke:black;stroke-width:2.45px;"/>
                <path id="STROKE_b142f5f2-617d-4686-9e11-7e349df04494" d="M-146.948,966.562L-101.889,905.283L-19.751,908.289L-146.948,966.562Z" style="fill:rgb(187,225,122);fill-rule:nonzero;stroke:black;stroke-width:2.45px;"/>
                <path id="STROKE_1b56a5b5-70ee-4f48-acc9-270e07d30f22" d="M-133.622,836.509L-57.446,814.819L-101.606,904.246L-133.622,836.509Z" style="fill:rgb(237,243,162);fill-rule:nonzero;stroke:black;stroke-width:2.45px;"/>
                <path id="STROKE_4bb941ed-c88b-450c-b929-f40e5391e584" d="M-133.498,836.093L-146.976,965.87L-101.226,904.894L-133.498,836.093Z" style="fill:rgb(185,225,129);fill-rule:nonzero;stroke:black;stroke-width:2.45px;"/>
                <path id="STROKE_0e6a1768-4153-4a4d-8260-f30f7f373dc3" d="M-206.123,738.157L-144.075,763.568L-132.456,838.55L-206.123,738.157Z" style="fill:rgb(225,236,128);fill-rule:nonzero;stroke:black;stroke-width:2.45px;"/>
                <path id="STROKE_4e2ff1b6-bca9-483e-8e58-bbff2c53d9bf" d="M-132.665,835.843L-144.181,764.139L-57.374,814.306L-132.665,835.843Z" style="fill:rgb(232,240,138);fill-rule:nonzero;stroke:black;stroke-width:2.45px;"/>
                <path id="STROKE_45540355-a8bb-43c6-af58-06e450c3a1a8" d="M-206.242,738.026L-81.67,714.057L-144.562,763.117L-206.242,738.026Z" style="fill:rgb(244,244,151);fill-rule:nonzero;stroke:black;stroke-width:2.45px;"/>
                <path id="STROKE_203bb111-c0aa-4323-8716-8361c70519e6" d="M-42.049,771.15L-81.236,713.63L-143.571,762.7L-42.049,771.15Z" style="fill:rgb(249,247,192);fill-rule:nonzero;stroke:black;stroke-width:2.45px;"/>
                <g transform="matrix(0.583334,0,0,0.651634,-241.059,595.95)">
                    <ellipse cx="377.628" cy="9.626" rx="17.143" ry="15.346" style="fill:rgb(245,245,163);stroke:black;stroke-width:4.16px;stroke-miterlimit:1.5;"/>
                </g>
                <g transform="matrix(0.583334,0,0,0.651634,-428.098,731.718)">
                    <ellipse cx="377.628" cy="9.626" rx="17.143" ry="15.346" style="fill:rgb(252,244,178);stroke:black;stroke-width:4.16px;stroke-miterlimit:1.5;"/>
                </g>
                <g transform="matrix(0.583334,0,0,0.651634,-367.537,959.241)">
                    <ellipse cx="377.628" cy="9.626" rx="17.143" ry="15.346" style="fill:rgb(199,229,121);stroke:black;stroke-width:4.16px;stroke-miterlimit:1.5;"/>
                </g>
                <g transform="matrix(0.583334,0,0,0.651634,-117.591,957.124)">
                    <ellipse cx="377.628" cy="9.626" rx="17.143" ry="15.346" style="fill:rgb(199,229,121);stroke:black;stroke-width:4.16px;stroke-miterlimit:1.5;"/>
                </g>
                <g transform="matrix(0.583334,0,0,0.651634,-57.5088,735.241)">
                    <ellipse cx="377.628" cy="9.626" rx="17.143" ry="15.346" style="fill:rgb(253,246,184);stroke:black;stroke-width:4.16px;stroke-miterlimit:1.5;"/>
                </g>
                <g transform="matrix(0.5,0,0,0.417442,-217.598,625.674)">
                    <ellipse cx="394.461" cy="342.676" rx="16.074" ry="53.37" style="fill:rgb(240,242,150);stroke:black;stroke-width:5.59px;stroke-miterlimit:1.5;"/>
                </g>
                <g transform="matrix(0.154508,0.475528,-0.397011,0.128997,86.7188,560.273)">
                    <ellipse cx="394.461" cy="342.676" rx="16.074" ry="53.37" style="fill:rgb(184,224,125);stroke:black;stroke-width:5.59px;stroke-miterlimit:1.5;"/>
                </g>
                <g transform="matrix(-0.404508,0.293893,-0.245366,-0.337718,242.957,829.486)">
                    <ellipse cx="394.461" cy="342.676" rx="16.074" ry="53.37" style="fill:rgb(178,221,117);stroke:black;stroke-width:5.59px;stroke-miterlimit:1.5;"/>
                </g>
                <g transform="matrix(-0.404508,-0.293893,0.245366,-0.337718,35.2014,1061.27)">
                    <ellipse cx="394.461" cy="342.676" rx="16.074" ry="53.37" style="fill:rgb(171,204,39);stroke:black;stroke-width:5.59px;stroke-miterlimit:1.5;"/>
                </g>
                <g transform="matrix(0.154508,-0.475528,0.397011,0.128997,-249.438,935.306)">
                    <ellipse cx="394.461" cy="342.676" rx="16.074" ry="53.37" style="fill:rgb(185,225,129);stroke:black;stroke-width:5.59px;stroke-miterlimit:1.5;"/>
                </g>
            </g>
        </g>
    </g>
</svg>
